<svg width="1204" height="334" viewBox="0 0 1204 334" fill="none" xmlns="http://www.w3.org/2000/svg">
<rect width="1204" height="334" fill="#1E1E1E"/>
<rect width="1203.27" height="333.17" fill="#D9D9D9"/>
<g filter="url(#filter0_dd_0_1)">
<path d="M360.991 146.456L338.904 200.456H331.254L324.579 161.194C324.504 160.744 324.429 160.256 324.354 159.731C324.304 159.206 324.254 158.656 324.204 158.081C324.004 158.656 323.804 159.206 323.604 159.731C323.429 160.256 323.241 160.744 323.041 161.194L306.729 200.456H299.116L290.266 146.456H296.904C297.629 146.456 298.216 146.644 298.666 147.019C299.116 147.369 299.379 147.844 299.454 148.444L304.704 183.806C304.779 184.556 304.841 185.356 304.891 186.206C304.966 187.056 305.029 187.944 305.079 188.869C305.354 187.919 305.641 187.019 305.941 186.169C306.266 185.319 306.579 184.531 306.879 183.806L321.579 148.444C321.804 147.944 322.179 147.494 322.704 147.094C323.254 146.669 323.891 146.456 324.616 146.456H326.566C327.291 146.456 327.866 146.644 328.291 147.019C328.741 147.394 329.041 147.869 329.191 148.444L335.229 183.806C335.354 184.531 335.466 185.306 335.566 186.131C335.666 186.956 335.741 187.819 335.791 188.719C336.066 187.819 336.329 186.956 336.579 186.131C336.829 185.306 337.079 184.531 337.329 183.806L351.241 148.444C351.416 147.919 351.791 147.456 352.366 147.056C352.966 146.656 353.629 146.456 354.354 146.456H360.991ZM375.722 162.206L371.11 200.456H363.197L367.772 162.206H375.722ZM378.122 150.656C378.122 151.381 377.972 152.069 377.672 152.719C377.372 153.369 376.972 153.944 376.472 154.444C375.972 154.919 375.41 155.306 374.785 155.606C374.16 155.881 373.51 156.019 372.835 156.019C372.16 156.019 371.51 155.881 370.885 155.606C370.285 155.306 369.747 154.919 369.272 154.444C368.822 153.944 368.447 153.369 368.147 152.719C367.872 152.069 367.735 151.381 367.735 150.656C367.735 149.931 367.872 149.244 368.147 148.594C368.447 147.919 368.835 147.344 369.31 146.869C369.785 146.369 370.335 145.981 370.96 145.706C371.585 145.406 372.222 145.256 372.872 145.256C373.547 145.256 374.197 145.406 374.822 145.706C375.472 145.981 376.035 146.369 376.51 146.869C377.01 147.344 377.397 147.906 377.672 148.556C377.972 149.206 378.122 149.906 378.122 150.656ZM386.806 192.919C386.806 192.744 386.806 192.544 386.806 192.319C386.831 192.069 386.856 191.719 386.881 191.269C386.931 190.819 386.993 190.219 387.068 189.469C387.143 188.719 387.256 187.756 387.406 186.581L389.618 168.544H385.756C385.331 168.544 384.993 168.406 384.743 168.131C384.493 167.831 384.406 167.394 384.481 166.819L384.856 163.556L390.668 162.656L393.668 151.594C393.818 151.169 394.043 150.831 394.343 150.581C394.668 150.306 395.056 150.169 395.506 150.169H399.781L398.206 162.731H407.843L407.168 168.544H397.493L395.356 186.131C395.231 187.156 395.131 187.981 395.056 188.606C394.981 189.206 394.918 189.694 394.868 190.069C394.843 190.419 394.818 190.669 394.793 190.819C394.793 190.944 394.793 191.044 394.793 191.119C394.793 192.219 395.056 193.056 395.581 193.631C396.106 194.206 396.831 194.494 397.756 194.494C398.356 194.494 398.868 194.419 399.293 194.269C399.718 194.094 400.093 193.919 400.418 193.744C400.743 193.544 401.018 193.369 401.243 193.219C401.468 193.044 401.681 192.956 401.881 192.956C402.156 192.956 402.356 193.019 402.481 193.144C402.606 193.244 402.731 193.431 402.856 193.706L404.581 197.644C403.256 198.744 401.781 199.594 400.156 200.194C398.556 200.769 396.931 201.056 395.281 201.056C392.706 201.056 390.668 200.356 389.168 198.956C387.668 197.531 386.881 195.519 386.806 192.919ZM425.495 169.594C427.42 166.944 429.52 164.956 431.795 163.631C434.07 162.281 436.407 161.606 438.807 161.606C440.432 161.606 441.87 161.931 443.12 162.581C444.395 163.206 445.432 164.144 446.232 165.394C447.032 166.619 447.582 168.131 447.882 169.931C448.182 171.731 448.182 173.794 447.882 176.119L445.032 200.456H437.007L439.857 176.119C440.207 173.394 440.057 171.406 439.407 170.156C438.757 168.881 437.557 168.244 435.807 168.244C434.757 168.244 433.67 168.544 432.545 169.144C431.445 169.719 430.382 170.544 429.357 171.619C428.332 172.669 427.357 173.956 426.432 175.481C425.532 176.981 424.77 178.656 424.145 180.506L421.745 200.456H413.72L420.432 144.956H428.457L425.495 169.594ZM572.164 153.319L569.989 170.981H589.226L588.326 177.806H569.164L566.351 200.456H557.876L564.514 146.456H595.639L594.776 153.319H572.164ZM606.803 172.069C607.778 170.044 608.828 168.306 609.953 166.856C611.103 165.406 612.29 164.269 613.515 163.444C614.765 162.619 616.04 162.131 617.34 161.981C618.665 161.831 619.99 162.044 621.315 162.619L619.853 170.344C616.678 169.069 613.89 169.481 611.49 171.581C609.115 173.656 607.203 177.594 605.753 183.394L603.728 200.456H595.853L600.465 162.131H604.515C605.39 162.131 606.053 162.356 606.503 162.806C606.978 163.231 607.215 163.906 607.215 164.831L606.803 172.069ZM639.128 194.719C640.803 194.719 642.328 194.256 643.703 193.331C645.078 192.381 646.241 191.119 647.191 189.544C648.166 187.969 648.916 186.156 649.441 184.106C649.966 182.031 650.228 179.869 650.228 177.619C650.228 174.319 649.616 171.881 648.391 170.306C647.191 168.706 645.403 167.906 643.028 167.906C641.328 167.906 639.791 168.369 638.416 169.294C637.066 170.219 635.916 171.456 634.966 173.006C634.016 174.556 633.278 176.369 632.753 178.444C632.228 180.519 631.966 182.694 631.966 184.969C631.966 191.469 634.353 194.719 639.128 194.719ZM638.416 201.019C636.316 201.019 634.378 200.669 632.603 199.969C630.828 199.244 629.291 198.206 627.991 196.856C626.716 195.481 625.716 193.806 624.991 191.831C624.266 189.831 623.903 187.569 623.903 185.044C623.903 181.769 624.416 178.706 625.441 175.856C626.491 173.006 627.916 170.531 629.716 168.431C631.516 166.306 633.616 164.644 636.016 163.444C638.441 162.219 641.028 161.606 643.778 161.606C645.878 161.606 647.816 161.969 649.591 162.694C651.366 163.394 652.891 164.431 654.166 165.806C655.441 167.156 656.441 168.831 657.166 170.831C657.891 172.806 658.253 175.056 658.253 177.581C658.253 179.731 658.016 181.806 657.541 183.806C657.066 185.806 656.403 187.681 655.553 189.431C654.703 191.156 653.666 192.731 652.441 194.156C651.241 195.581 649.903 196.806 648.428 197.831C646.978 198.831 645.403 199.619 643.703 200.194C642.003 200.744 640.241 201.019 638.416 201.019ZM665.866 200.456L670.479 162.131H674.529C675.404 162.131 676.066 162.356 676.516 162.806C676.991 163.231 677.229 163.906 677.229 164.831L676.891 170.231C678.691 167.356 680.641 165.206 682.741 163.781C684.866 162.331 687.104 161.606 689.454 161.606C691.904 161.606 693.779 162.444 695.079 164.119C696.379 165.769 697.079 168.156 697.179 171.281C699.029 167.956 701.091 165.519 703.366 163.969C705.641 162.394 708.079 161.606 710.679 161.606C713.929 161.606 716.291 162.869 717.766 165.394C719.241 167.919 719.704 171.494 719.154 176.119L716.266 200.456H708.354L711.204 176.119C711.379 174.769 711.441 173.606 711.391 172.631C711.366 171.631 711.216 170.819 710.941 170.194C710.691 169.544 710.304 169.069 709.779 168.769C709.279 168.469 708.616 168.319 707.791 168.319C706.791 168.319 705.791 168.581 704.791 169.106C703.816 169.631 702.879 170.394 701.979 171.394C701.079 172.394 700.241 173.619 699.466 175.069C698.691 176.519 698.004 178.169 697.404 180.019L695.004 200.456H687.091L689.979 176.119C690.154 174.769 690.229 173.606 690.204 172.631C690.179 171.631 690.041 170.819 689.791 170.194C689.541 169.544 689.166 169.069 688.666 168.769C688.166 168.469 687.504 168.319 686.679 168.319C685.579 168.319 684.529 168.606 683.529 169.181C682.529 169.731 681.579 170.531 680.679 171.581C679.779 172.631 678.941 173.919 678.166 175.444C677.391 176.944 676.704 178.644 676.104 180.544L673.741 200.456H665.866ZM757.938 200.456H749.463L756.063 146.456H764.538L757.938 200.456ZM782.094 170.869C784.069 167.769 786.282 165.456 788.732 163.931C791.182 162.381 793.707 161.606 796.307 161.606C797.907 161.606 799.332 161.931 800.582 162.581C801.832 163.206 802.857 164.144 803.657 165.394C804.457 166.619 805.007 168.131 805.307 169.931C805.607 171.731 805.619 173.794 805.344 176.119L802.457 200.456H794.432L797.319 176.119C797.669 173.394 797.507 171.419 796.832 170.194C796.182 168.944 794.994 168.319 793.269 168.319C792.169 168.319 791.032 168.631 789.857 169.256C788.707 169.881 787.594 170.769 786.519 171.919C785.469 173.044 784.482 174.419 783.557 176.044C782.632 177.644 781.869 179.431 781.269 181.406L779.169 200.456H771.144L775.719 162.131H779.769C780.644 162.131 781.307 162.356 781.757 162.806C782.232 163.231 782.469 163.906 782.469 164.831L782.094 170.869ZM840.904 170.831C840.004 169.731 838.942 168.969 837.717 168.544C836.517 168.094 835.317 167.869 834.117 167.869C832.317 167.869 830.679 168.419 829.204 169.519C827.754 170.594 826.504 172.006 825.454 173.756C824.429 175.481 823.629 177.431 823.054 179.606C822.504 181.756 822.229 183.906 822.229 186.056C822.229 188.881 822.717 191.006 823.692 192.431C824.667 193.856 826.029 194.569 827.779 194.569C828.879 194.569 830.004 194.206 831.154 193.481C832.304 192.756 833.404 191.756 834.454 190.481C835.504 189.206 836.479 187.694 837.379 185.944C838.304 184.194 839.092 182.294 839.742 180.244L840.904 170.831ZM852.004 144.956L845.142 200.456H840.904C839.879 200.456 839.179 200.194 838.804 199.669C838.454 199.144 838.279 198.494 838.279 197.719L838.767 191.194C837.817 192.694 836.804 194.044 835.729 195.244C834.654 196.444 833.517 197.481 832.317 198.356C831.142 199.206 829.917 199.869 828.642 200.344C827.367 200.794 826.054 201.019 824.704 201.019C821.479 201.019 818.929 199.844 817.054 197.494C815.204 195.119 814.279 191.581 814.279 186.881C814.279 184.756 814.492 182.656 814.917 180.581C815.367 178.506 815.992 176.531 816.792 174.656C817.592 172.781 818.554 171.056 819.679 169.481C820.829 167.881 822.092 166.506 823.467 165.356C824.842 164.181 826.317 163.269 827.892 162.619C829.492 161.944 831.154 161.606 832.879 161.606C834.679 161.606 836.317 161.944 837.792 162.619C839.267 163.294 840.529 164.244 841.579 165.469L844.129 144.956H852.004ZM870.28 162.206L865.667 200.456H857.755L862.33 162.206H870.28ZM872.68 150.656C872.68 151.381 872.53 152.069 872.23 152.719C871.93 153.369 871.53 153.944 871.03 154.444C870.53 154.919 869.967 155.306 869.342 155.606C868.717 155.881 868.067 156.019 867.392 156.019C866.717 156.019 866.067 155.881 865.442 155.606C864.842 155.306 864.305 154.919 863.83 154.444C863.38 153.944 863.005 153.369 862.705 152.719C862.43 152.069 862.292 151.381 862.292 150.656C862.292 149.931 862.43 149.244 862.705 148.594C863.005 147.919 863.392 147.344 863.867 146.869C864.342 146.369 864.892 145.981 865.517 145.706C866.142 145.406 866.78 145.256 867.43 145.256C868.105 145.256 868.755 145.406 869.38 145.706C870.03 145.981 870.592 146.369 871.067 146.869C871.567 147.344 871.955 147.906 872.23 148.556C872.53 149.206 872.68 149.906 872.68 150.656ZM903.976 167.606C903.551 167.556 903.126 167.519 902.701 167.494C902.301 167.469 901.889 167.456 901.464 167.456C899.314 167.456 897.289 167.956 895.389 168.956C893.514 169.956 891.876 171.306 890.476 173.006C889.101 174.706 888.014 176.681 887.214 178.931C886.414 181.156 886.014 183.506 886.014 185.981C886.014 188.831 886.464 190.944 887.364 192.319C888.289 193.669 889.589 194.344 891.264 194.344C892.389 194.344 893.489 193.981 894.564 193.256C895.639 192.506 896.651 191.494 897.601 190.219C898.576 188.919 899.476 187.394 900.301 185.644C901.126 183.894 901.839 181.994 902.439 179.944L903.976 167.606ZM901.426 191.531C900.551 192.981 899.614 194.294 898.614 195.469C897.639 196.619 896.601 197.606 895.501 198.431C894.401 199.256 893.239 199.894 892.014 200.344C890.789 200.794 889.514 201.019 888.189 201.019C886.714 201.019 885.351 200.731 884.101 200.156C882.851 199.581 881.776 198.719 880.876 197.569C879.976 196.419 879.264 195.006 878.739 193.331C878.239 191.631 877.989 189.669 877.989 187.444C877.989 185.169 878.276 182.956 878.851 180.806C879.426 178.631 880.239 176.594 881.289 174.694C882.339 172.769 883.601 171.006 885.076 169.406C886.551 167.806 888.201 166.431 890.026 165.281C891.851 164.131 893.814 163.244 895.914 162.619C898.039 161.969 900.264 161.644 902.589 161.644C904.264 161.644 905.926 161.781 907.576 162.056C909.226 162.306 910.839 162.756 912.414 163.406L907.839 200.456H903.601C902.576 200.456 901.876 200.194 901.501 199.669C901.126 199.144 900.939 198.494 900.939 197.719L901.426 191.531Z" fill="black"/>
<path d="M360.991 146.456L338.904 200.456H331.254L324.579 161.194C324.504 160.744 324.429 160.256 324.354 159.731C324.304 159.206 324.254 158.656 324.204 158.081C324.004 158.656 323.804 159.206 323.604 159.731C323.429 160.256 323.241 160.744 323.041 161.194L306.729 200.456H299.116L290.266 146.456H296.904C297.629 146.456 298.216 146.644 298.666 147.019C299.116 147.369 299.379 147.844 299.454 148.444L304.704 183.806C304.779 184.556 304.841 185.356 304.891 186.206C304.966 187.056 305.029 187.944 305.079 188.869C305.354 187.919 305.641 187.019 305.941 186.169C306.266 185.319 306.579 184.531 306.879 183.806L321.579 148.444C321.804 147.944 322.179 147.494 322.704 147.094C323.254 146.669 323.891 146.456 324.616 146.456H326.566C327.291 146.456 327.866 146.644 328.291 147.019C328.741 147.394 329.041 147.869 329.191 148.444L335.229 183.806C335.354 184.531 335.466 185.306 335.566 186.131C335.666 186.956 335.741 187.819 335.791 188.719C336.066 187.819 336.329 186.956 336.579 186.131C336.829 185.306 337.079 184.531 337.329 183.806L351.241 148.444C351.416 147.919 351.791 147.456 352.366 147.056C352.966 146.656 353.629 146.456 354.354 146.456H360.991ZM375.722 162.206L371.11 200.456H363.197L367.772 162.206H375.722ZM378.122 150.656C378.122 151.381 377.972 152.069 377.672 152.719C377.372 153.369 376.972 153.944 376.472 154.444C375.972 154.919 375.41 155.306 374.785 155.606C374.16 155.881 373.51 156.019 372.835 156.019C372.16 156.019 371.51 155.881 370.885 155.606C370.285 155.306 369.747 154.919 369.272 154.444C368.822 153.944 368.447 153.369 368.147 152.719C367.872 152.069 367.735 151.381 367.735 150.656C367.735 149.931 367.872 149.244 368.147 148.594C368.447 147.919 368.835 147.344 369.31 146.869C369.785 146.369 370.335 145.981 370.96 145.706C371.585 145.406 372.222 145.256 372.872 145.256C373.547 145.256 374.197 145.406 374.822 145.706C375.472 145.981 376.035 146.369 376.51 146.869C377.01 147.344 377.397 147.906 377.672 148.556C377.972 149.206 378.122 149.906 378.122 150.656ZM386.806 192.919C386.806 192.744 386.806 192.544 386.806 192.319C386.831 192.069 386.856 191.719 386.881 191.269C386.931 190.819 386.993 190.219 387.068 189.469C387.143 188.719 387.256 187.756 387.406 186.581L389.618 168.544H385.756C385.331 168.544 384.993 168.406 384.743 168.131C384.493 167.831 384.406 167.394 384.481 166.819L384.856 163.556L390.668 162.656L393.668 151.594C393.818 151.169 394.043 150.831 394.343 150.581C394.668 150.306 395.056 150.169 395.506 150.169H399.781L398.206 162.731H407.843L407.168 168.544H397.493L395.356 186.131C395.231 187.156 395.131 187.981 395.056 188.606C394.981 189.206 394.918 189.694 394.868 190.069C394.843 190.419 394.818 190.669 394.793 190.819C394.793 190.944 394.793 191.044 394.793 191.119C394.793 192.219 395.056 193.056 395.581 193.631C396.106 194.206 396.831 194.494 397.756 194.494C398.356 194.494 398.868 194.419 399.293 194.269C399.718 194.094 400.093 193.919 400.418 193.744C400.743 193.544 401.018 193.369 401.243 193.219C401.468 193.044 401.681 192.956 401.881 192.956C402.156 192.956 402.356 193.019 402.481 193.144C402.606 193.244 402.731 193.431 402.856 193.706L404.581 197.644C403.256 198.744 401.781 199.594 400.156 200.194C398.556 200.769 396.931 201.056 395.281 201.056C392.706 201.056 390.668 200.356 389.168 198.956C387.668 197.531 386.881 195.519 386.806 192.919ZM425.495 169.594C427.42 166.944 429.52 164.956 431.795 163.631C434.07 162.281 436.407 161.606 438.807 161.606C440.432 161.606 441.87 161.931 443.12 162.581C444.395 163.206 445.432 164.144 446.232 165.394C447.032 166.619 447.582 168.131 447.882 169.931C448.182 171.731 448.182 173.794 447.882 176.119L445.032 200.456H437.007L439.857 176.119C440.207 173.394 440.057 171.406 439.407 170.156C438.757 168.881 437.557 168.244 435.807 168.244C434.757 168.244 433.67 168.544 432.545 169.144C431.445 169.719 430.382 170.544 429.357 171.619C428.332 172.669 427.357 173.956 426.432 175.481C425.532 176.981 424.77 178.656 424.145 180.506L421.745 200.456H413.72L420.432 144.956H428.457L425.495 169.594ZM572.164 153.319L569.989 170.981H589.226L588.326 177.806H569.164L566.351 200.456H557.876L564.514 146.456H595.639L594.776 153.319H572.164ZM606.803 172.069C607.778 170.044 608.828 168.306 609.953 166.856C611.103 165.406 612.29 164.269 613.515 163.444C614.765 162.619 616.04 162.131 617.34 161.981C618.665 161.831 619.99 162.044 621.315 162.619L619.853 170.344C616.678 169.069 613.89 169.481 611.49 171.581C609.115 173.656 607.203 177.594 605.753 183.394L603.728 200.456H595.853L600.465 162.131H604.515C605.39 162.131 606.053 162.356 606.503 162.806C606.978 163.231 607.215 163.906 607.215 164.831L606.803 172.069ZM639.128 194.719C640.803 194.719 642.328 194.256 643.703 193.331C645.078 192.381 646.241 191.119 647.191 189.544C648.166 187.969 648.916 186.156 649.441 184.106C649.966 182.031 650.228 179.869 650.228 177.619C650.228 174.319 649.616 171.881 648.391 170.306C647.191 168.706 645.403 167.906 643.028 167.906C641.328 167.906 639.791 168.369 638.416 169.294C637.066 170.219 635.916 171.456 634.966 173.006C634.016 174.556 633.278 176.369 632.753 178.444C632.228 180.519 631.966 182.694 631.966 184.969C631.966 191.469 634.353 194.719 639.128 194.719ZM638.416 201.019C636.316 201.019 634.378 200.669 632.603 199.969C630.828 199.244 629.291 198.206 627.991 196.856C626.716 195.481 625.716 193.806 624.991 191.831C624.266 189.831 623.903 187.569 623.903 185.044C623.903 181.769 624.416 178.706 625.441 175.856C626.491 173.006 627.916 170.531 629.716 168.431C631.516 166.306 633.616 164.644 636.016 163.444C638.441 162.219 641.028 161.606 643.778 161.606C645.878 161.606 647.816 161.969 649.591 162.694C651.366 163.394 652.891 164.431 654.166 165.806C655.441 167.156 656.441 168.831 657.166 170.831C657.891 172.806 658.253 175.056 658.253 177.581C658.253 179.731 658.016 181.806 657.541 183.806C657.066 185.806 656.403 187.681 655.553 189.431C654.703 191.156 653.666 192.731 652.441 194.156C651.241 195.581 649.903 196.806 648.428 197.831C646.978 198.831 645.403 199.619 643.703 200.194C642.003 200.744 640.241 201.019 638.416 201.019ZM665.866 200.456L670.479 162.131H674.529C675.404 162.131 676.066 162.356 676.516 162.806C676.991 163.231 677.229 163.906 677.229 164.831L676.891 170.231C678.691 167.356 680.641 165.206 682.741 163.781C684.866 162.331 687.104 161.606 689.454 161.606C691.904 161.606 693.779 162.444 695.079 164.119C696.379 165.769 697.079 168.156 697.179 171.281C699.029 167.956 701.091 165.519 703.366 163.969C705.641 162.394 708.079 161.606 710.679 161.606C713.929 161.606 716.291 162.869 717.766 165.394C719.241 167.919 719.704 171.494 719.154 176.119L716.266 200.456H708.354L711.204 176.119C711.379 174.769 711.441 173.606 711.391 172.631C711.366 171.631 711.216 170.819 710.941 170.194C710.691 169.544 710.304 169.069 709.779 168.769C709.279 168.469 708.616 168.319 707.791 168.319C706.791 168.319 705.791 168.581 704.791 169.106C703.816 169.631 702.879 170.394 701.979 171.394C701.079 172.394 700.241 173.619 699.466 175.069C698.691 176.519 698.004 178.169 697.404 180.019L695.004 200.456H687.091L689.979 176.119C690.154 174.769 690.229 173.606 690.204 172.631C690.179 171.631 690.041 170.819 689.791 170.194C689.541 169.544 689.166 169.069 688.666 168.769C688.166 168.469 687.504 168.319 686.679 168.319C685.579 168.319 684.529 168.606 683.529 169.181C682.529 169.731 681.579 170.531 680.679 171.581C679.779 172.631 678.941 173.919 678.166 175.444C677.391 176.944 676.704 178.644 676.104 180.544L673.741 200.456H665.866ZM757.938 200.456H749.463L756.063 146.456H764.538L757.938 200.456ZM782.094 170.869C784.069 167.769 786.282 165.456 788.732 163.931C791.182 162.381 793.707 161.606 796.307 161.606C797.907 161.606 799.332 161.931 800.582 162.581C801.832 163.206 802.857 164.144 803.657 165.394C804.457 166.619 805.007 168.131 805.307 169.931C805.607 171.731 805.619 173.794 805.344 176.119L802.457 200.456H794.432L797.319 176.119C797.669 173.394 797.507 171.419 796.832 170.194C796.182 168.944 794.994 168.319 793.269 168.319C792.169 168.319 791.032 168.631 789.857 169.256C788.707 169.881 787.594 170.769 786.519 171.919C785.469 173.044 784.482 174.419 783.557 176.044C782.632 177.644 781.869 179.431 781.269 181.406L779.169 200.456H771.144L775.719 162.131H779.769C780.644 162.131 781.307 162.356 781.757 162.806C782.232 163.231 782.469 163.906 782.469 164.831L782.094 170.869ZM840.904 170.831C840.004 169.731 838.942 168.969 837.717 168.544C836.517 168.094 835.317 167.869 834.117 167.869C832.317 167.869 830.679 168.419 829.204 169.519C827.754 170.594 826.504 172.006 825.454 173.756C824.429 175.481 823.629 177.431 823.054 179.606C822.504 181.756 822.229 183.906 822.229 186.056C822.229 188.881 822.717 191.006 823.692 192.431C824.667 193.856 826.029 194.569 827.779 194.569C828.879 194.569 830.004 194.206 831.154 193.481C832.304 192.756 833.404 191.756 834.454 190.481C835.504 189.206 836.479 187.694 837.379 185.944C838.304 184.194 839.092 182.294 839.742 180.244L840.904 170.831ZM852.004 144.956L845.142 200.456H840.904C839.879 200.456 839.179 200.194 838.804 199.669C838.454 199.144 838.279 198.494 838.279 197.719L838.767 191.194C837.817 192.694 836.804 194.044 835.729 195.244C834.654 196.444 833.517 197.481 832.317 198.356C831.142 199.206 829.917 199.869 828.642 200.344C827.367 200.794 826.054 201.019 824.704 201.019C821.479 201.019 818.929 199.844 817.054 197.494C815.204 195.119 814.279 191.581 814.279 186.881C814.279 184.756 814.492 182.656 814.917 180.581C815.367 178.506 815.992 176.531 816.792 174.656C817.592 172.781 818.554 171.056 819.679 169.481C820.829 167.881 822.092 166.506 823.467 165.356C824.842 164.181 826.317 163.269 827.892 162.619C829.492 161.944 831.154 161.606 832.879 161.606C834.679 161.606 836.317 161.944 837.792 162.619C839.267 163.294 840.529 164.244 841.579 165.469L844.129 144.956H852.004ZM870.28 162.206L865.667 200.456H857.755L862.33 162.206H870.28ZM872.68 150.656C872.68 151.381 872.53 152.069 872.23 152.719C871.93 153.369 871.53 153.944 871.03 154.444C870.53 154.919 869.967 155.306 869.342 155.606C868.717 155.881 868.067 156.019 867.392 156.019C866.717 156.019 866.067 155.881 865.442 155.606C864.842 155.306 864.305 154.919 863.83 154.444C863.38 153.944 863.005 153.369 862.705 152.719C862.43 152.069 862.292 151.381 862.292 150.656C862.292 149.931 862.43 149.244 862.705 148.594C863.005 147.919 863.392 147.344 863.867 146.869C864.342 146.369 864.892 145.981 865.517 145.706C866.142 145.406 866.78 145.256 867.43 145.256C868.105 145.256 868.755 145.406 869.38 145.706C870.03 145.981 870.592 146.369 871.067 146.869C871.567 147.344 871.955 147.906 872.23 148.556C872.53 149.206 872.68 149.906 872.68 150.656ZM903.976 167.606C903.551 167.556 903.126 167.519 902.701 167.494C902.301 167.469 901.889 167.456 901.464 167.456C899.314 167.456 897.289 167.956 895.389 168.956C893.514 169.956 891.876 171.306 890.476 173.006C889.101 174.706 888.014 176.681 887.214 178.931C886.414 181.156 886.014 183.506 886.014 185.981C886.014 188.831 886.464 190.944 887.364 192.319C888.289 193.669 889.589 194.344 891.264 194.344C892.389 194.344 893.489 193.981 894.564 193.256C895.639 192.506 896.651 191.494 897.601 190.219C898.576 188.919 899.476 187.394 900.301 185.644C901.126 183.894 901.839 181.994 902.439 179.944L903.976 167.606ZM901.426 191.531C900.551 192.981 899.614 194.294 898.614 195.469C897.639 196.619 896.601 197.606 895.501 198.431C894.401 199.256 893.239 199.894 892.014 200.344C890.789 200.794 889.514 201.019 888.189 201.019C886.714 201.019 885.351 200.731 884.101 200.156C882.851 199.581 881.776 198.719 880.876 197.569C879.976 196.419 879.264 195.006 878.739 193.331C878.239 191.631 877.989 189.669 877.989 187.444C877.989 185.169 878.276 182.956 878.851 180.806C879.426 178.631 880.239 176.594 881.289 174.694C882.339 172.769 883.601 171.006 885.076 169.406C886.551 167.806 888.201 166.431 890.026 165.281C891.851 164.131 893.814 163.244 895.914 162.619C898.039 161.969 900.264 161.644 902.589 161.644C904.264 161.644 905.926 161.781 907.576 162.056C909.226 162.306 910.839 162.756 912.414 163.406L907.839 200.456H903.601C902.576 200.456 901.876 200.194 901.501 199.669C901.126 199.144 900.939 198.494 900.939 197.719L901.426 191.531Z" fill="black" fill-opacity="0.18"/>
</g>
<path d="M484.329 107C470.988 107 466.541 116.481 466.541 128.177C466.541 149.354 492.556 168.606 506.564 173.084C520.573 168.606 546.588 149.354 546.588 128.177C546.588 116.481 540.957 107 528.8 107C521.355 107 510.548 116.243 506.564 121.685C502.581 116.243 491.774 107 484.329 107Z" fill="#2F88FF" stroke="black" stroke-opacity="0.89" stroke-width="4" stroke-linecap="round" stroke-linejoin="round"/>
<path d="M506.564 173.084C499.893 176.361 489.887 183.598 489.887 194.111C489.887 204.624 523.24 201.621 523.24 212.134C523.24 222.647 486.552 227.153 486.552 227.153" stroke="black" stroke-opacity="0.89" stroke-width="4" stroke-linecap="round" stroke-linejoin="round"/>
<defs>
<filter id="filter0_dd_0_1" x="286.266" y="144.956" width="630.147" height="64.1" filterUnits="userSpaceOnUse" color-interpolation-filters="sRGB">
<feFlood flood-opacity="0" result="BackgroundImageFix"/>
<feColorMatrix in="SourceAlpha" type="matrix" values="0 0 0 0 0 0 0 0 0 0 0 0 0 0 0 0 0 0 127 0" result="hardAlpha"/>
<feOffset dy="4"/>
<feGaussianBlur stdDeviation="2"/>
<feComposite in2="hardAlpha" operator="out"/>
<feColorMatrix type="matrix" values="0 0 0 0 0 0 0 0 0 0 0 0 0 0 0 0 0 0 0.25 0"/>
<feBlend mode="normal" in2="BackgroundImageFix" result="effect1_dropShadow_0_1"/>
<feColorMatrix in="SourceAlpha" type="matrix" values="0 0 0 0 0 0 0 0 0 0 0 0 0 0 0 0 0 0 127 0" result="hardAlpha"/>
<feOffset dy="4"/>
<feGaussianBlur stdDeviation="2"/>
<feComposite in2="hardAlpha" operator="out"/>
<feColorMatrix type="matrix" values="0 0 0 0 0 0 0 0 0 0 0 0 0 0 0 0 0 0 0.25 0"/>
<feBlend mode="normal" in2="effect1_dropShadow_0_1" result="effect2_dropShadow_0_1"/>
<feBlend mode="normal" in="SourceGraphic" in2="effect2_dropShadow_0_1" result="shape"/>
</filter>
</defs>
</svg>
