<svg width="1189" height="357" viewBox="0 0 1189 357" fill="none" xmlns="http://www.w3.org/2000/svg">
<rect width="1189" height="357" fill="#1E1E1E"/>
<rect width="1189" height="357" fill="#D9D9D9"/>
<mask id="mask0_0_1" style="mask-type:luminance" maskUnits="userSpaceOnUse" x="0" y="0" width="1189" height="357">
<path d="M1189 0H0V357H1189V0Z" fill="white"/>
</mask>
<g mask="url(#mask0_0_1)">
<g filter="url(#filter0_dd_0_1)">
<path d="M275.155 145L245.705 217H235.505L226.605 164.65C226.505 164.05 226.405 163.4 226.305 162.7C226.238 162 226.172 161.267 226.105 160.5C225.838 161.267 225.572 162 225.305 162.7C225.072 163.4 224.822 164.05 224.555 164.65L202.805 217H192.655L180.855 145H189.705C190.672 145 191.455 145.25 192.055 145.75C192.655 146.217 193.005 146.85 193.105 147.65L200.105 194.8C200.205 195.8 200.288 196.867 200.355 198C200.455 199.133 200.538 200.317 200.605 201.55C200.972 200.283 201.355 199.083 201.755 197.95C202.188 196.817 202.605 195.767 203.005 194.8L222.605 147.65C222.905 146.983 223.405 146.383 224.105 145.85C224.838 145.283 225.688 145 226.655 145H229.255C230.222 145 230.988 145.25 231.555 145.75C232.155 146.25 232.555 146.883 232.755 147.65L240.805 194.8C240.972 195.767 241.122 196.8 241.255 197.9C241.388 199 241.488 200.15 241.555 201.35C241.922 200.15 242.272 199 242.605 197.9C242.938 196.8 243.272 195.767 243.605 194.8L262.155 147.65C262.388 146.95 262.888 146.333 263.655 145.8C264.455 145.267 265.338 145 266.305 145H275.155ZM294.796 166L288.646 217H278.096L284.196 166H294.796ZM297.996 150.6C297.996 151.567 297.796 152.483 297.396 153.35C296.996 154.217 296.463 154.983 295.796 155.65C295.13 156.283 294.38 156.8 293.546 157.2C292.713 157.567 291.846 157.75 290.946 157.75C290.046 157.75 289.18 157.567 288.346 157.2C287.546 156.8 286.83 156.283 286.196 155.65C285.596 154.983 285.096 154.217 284.696 153.35C284.33 152.483 284.146 151.567 284.146 150.6C284.146 149.633 284.33 148.717 284.696 147.85C285.096 146.95 285.613 146.183 286.246 145.55C286.88 144.883 287.613 144.367 288.446 144C289.28 143.6 290.13 143.4 290.996 143.4C291.896 143.4 292.763 143.6 293.596 144C294.463 144.367 295.213 144.883 295.846 145.55C296.513 146.183 297.03 146.933 297.396 147.8C297.796 148.667 297.996 149.6 297.996 150.6ZM309.575 206.95C309.575 206.717 309.575 206.45 309.575 206.15C309.608 205.817 309.641 205.35 309.675 204.75C309.741 204.15 309.825 203.35 309.925 202.35C310.025 201.35 310.175 200.067 310.375 198.5L313.325 174.45H308.175C307.608 174.45 307.158 174.267 306.825 173.9C306.491 173.5 306.375 172.917 306.475 172.15L306.975 167.8L314.725 166.6L318.725 151.85C318.925 151.283 319.225 150.833 319.625 150.5C320.058 150.133 320.575 149.95 321.175 149.95H326.875L324.775 166.7H337.625L336.725 174.45H323.825L320.975 197.9C320.808 199.267 320.675 200.367 320.575 201.2C320.475 202 320.391 202.65 320.325 203.15C320.291 203.617 320.258 203.95 320.225 204.15C320.225 204.317 320.225 204.45 320.225 204.55C320.225 206.017 320.575 207.133 321.275 207.9C321.975 208.667 322.941 209.05 324.175 209.05C324.975 209.05 325.658 208.95 326.225 208.75C326.791 208.517 327.291 208.283 327.725 208.05C328.158 207.783 328.525 207.55 328.825 207.35C329.125 207.117 329.408 207 329.675 207C330.041 207 330.308 207.083 330.475 207.25C330.641 207.383 330.808 207.633 330.975 208L333.275 213.25C331.508 214.717 329.541 215.85 327.375 216.65C325.241 217.417 323.075 217.8 320.875 217.8C317.441 217.8 314.725 216.867 312.725 215C310.725 213.1 309.675 210.417 309.575 206.95ZM361.16 175.85C363.726 172.317 366.526 169.667 369.56 167.9C372.593 166.1 375.71 165.2 378.91 165.2C381.076 165.2 382.993 165.633 384.66 166.5C386.36 167.333 387.743 168.583 388.81 170.25C389.876 171.883 390.61 173.9 391.01 176.3C391.41 178.7 391.41 181.45 391.01 184.55L387.21 217H376.51L380.31 184.55C380.776 180.917 380.576 178.267 379.71 176.6C378.843 174.9 377.243 174.05 374.91 174.05C373.51 174.05 372.06 174.45 370.56 175.25C369.093 176.017 367.676 177.117 366.31 178.55C364.943 179.95 363.643 181.667 362.41 183.7C361.21 185.7 360.193 187.933 359.36 190.4L356.16 217H345.46L354.41 143H365.11L361.16 175.85ZM556.718 154.15L553.818 177.7H579.468L578.268 186.8H552.718L548.968 217H537.668L546.518 145H588.018L586.868 154.15H556.718ZM602.904 179.15C604.204 176.45 605.604 174.133 607.104 172.2C608.637 170.267 610.22 168.75 611.854 167.65C613.52 166.55 615.22 165.9 616.954 165.7C618.72 165.5 620.487 165.783 622.254 166.55L620.304 176.85C616.07 175.15 612.354 175.7 609.154 178.5C605.987 181.267 603.437 186.517 601.504 194.25L598.804 217H588.304L594.454 165.9H599.854C601.02 165.9 601.904 166.2 602.504 166.8C603.137 167.367 603.454 168.267 603.454 169.5L602.904 179.15ZM646.004 209.35C648.238 209.35 650.271 208.733 652.104 207.5C653.938 206.233 655.488 204.55 656.754 202.45C658.054 200.35 659.054 197.933 659.754 195.2C660.454 192.433 660.804 189.55 660.804 186.55C660.804 182.15 659.988 178.9 658.354 176.8C656.754 174.667 654.371 173.6 651.204 173.6C648.938 173.6 646.888 174.217 645.054 175.45C643.254 176.683 641.721 178.333 640.454 180.4C639.188 182.467 638.204 184.883 637.504 187.65C636.804 190.417 636.454 193.317 636.454 196.35C636.454 205.017 639.638 209.35 646.004 209.35ZM645.054 217.75C642.254 217.75 639.671 217.283 637.304 216.35C634.938 215.383 632.888 214 631.154 212.2C629.454 210.367 628.121 208.133 627.154 205.5C626.188 202.833 625.704 199.817 625.704 196.45C625.704 192.083 626.388 188 627.754 184.2C629.154 180.4 631.054 177.1 633.454 174.3C635.854 171.467 638.654 169.25 641.854 167.65C645.088 166.017 648.538 165.2 652.204 165.2C655.004 165.2 657.588 165.683 659.954 166.65C662.321 167.583 664.354 168.967 666.054 170.8C667.754 172.6 669.088 174.833 670.054 177.5C671.021 180.133 671.504 183.133 671.504 186.5C671.504 189.367 671.188 192.133 670.554 194.8C669.921 197.467 669.038 199.967 667.904 202.3C666.771 204.6 665.388 206.7 663.754 208.6C662.154 210.5 660.371 212.133 658.404 213.5C656.471 214.833 654.371 215.883 652.104 216.65C649.838 217.383 647.488 217.75 645.054 217.75ZM681.655 217L687.805 165.9H693.205C694.372 165.9 695.255 166.2 695.855 166.8C696.488 167.367 696.805 168.267 696.805 169.5L696.355 176.7C698.755 172.867 701.355 170 704.155 168.1C706.988 166.167 709.972 165.2 713.105 165.2C716.372 165.2 718.872 166.317 720.605 168.55C722.338 170.75 723.272 173.933 723.405 178.1C725.872 173.667 728.622 170.417 731.655 168.35C734.688 166.25 737.938 165.2 741.405 165.2C745.738 165.2 748.888 166.883 750.855 170.25C752.822 173.617 753.438 178.383 752.705 184.55L748.855 217H738.305L742.105 184.55C742.338 182.75 742.422 181.2 742.355 179.9C742.322 178.567 742.122 177.483 741.755 176.65C741.422 175.783 740.905 175.15 740.205 174.75C739.538 174.35 738.655 174.15 737.555 174.15C736.222 174.15 734.888 174.5 733.555 175.2C732.255 175.9 731.005 176.917 729.805 178.25C728.605 179.583 727.488 181.217 726.455 183.15C725.422 185.083 724.505 187.283 723.705 189.75L720.505 217H709.955L713.805 184.55C714.038 182.75 714.138 181.2 714.105 179.9C714.072 178.567 713.888 177.483 713.555 176.65C713.222 175.783 712.722 175.15 712.055 174.75C711.388 174.35 710.505 174.15 709.405 174.15C707.938 174.15 706.538 174.533 705.205 175.3C703.872 176.033 702.605 177.1 701.405 178.5C700.205 179.9 699.088 181.617 698.055 183.65C697.022 185.65 696.105 187.917 695.305 190.45L692.155 217H681.655ZM804.418 217H793.118L801.918 145H813.218L804.418 217ZM836.625 177.55C839.259 173.417 842.209 170.333 845.475 168.3C848.742 166.233 852.109 165.2 855.575 165.2C857.709 165.2 859.609 165.633 861.275 166.5C862.942 167.333 864.309 168.583 865.375 170.25C866.442 171.883 867.175 173.9 867.575 176.3C867.975 178.7 867.992 181.45 867.625 184.55L863.775 217H853.075L856.925 184.55C857.392 180.917 857.175 178.283 856.275 176.65C855.409 174.983 853.825 174.15 851.525 174.15C850.059 174.15 848.542 174.567 846.975 175.4C845.442 176.233 843.959 177.417 842.525 178.95C841.125 180.45 839.809 182.283 838.575 184.45C837.342 186.583 836.325 188.967 835.525 191.6L832.725 217H822.025L828.125 165.9H833.525C834.692 165.9 835.575 166.2 836.175 166.8C836.809 167.367 837.125 168.267 837.125 169.5L836.625 177.55ZM915.039 177.5C913.839 176.033 912.422 175.017 910.789 174.45C909.189 173.85 907.589 173.55 905.989 173.55C903.589 173.55 901.405 174.283 899.439 175.75C897.505 177.183 895.839 179.067 894.439 181.4C893.072 183.7 892.005 186.3 891.239 189.2C890.505 192.067 890.139 194.933 890.139 197.8C890.139 201.567 890.789 204.4 892.089 206.3C893.389 208.2 895.205 209.15 897.539 209.15C899.005 209.15 900.505 208.667 902.039 207.7C903.572 206.733 905.039 205.4 906.439 203.7C907.839 202 909.139 199.983 910.339 197.65C911.572 195.317 912.622 192.783 913.489 190.05L915.039 177.5ZM929.839 143L920.689 217H915.039C913.672 217 912.739 216.65 912.239 215.95C911.772 215.25 911.539 214.383 911.539 213.35L912.189 204.65C910.922 206.65 909.572 208.45 908.139 210.05C906.705 211.65 905.189 213.033 903.589 214.2C902.022 215.333 900.389 216.217 898.689 216.85C896.989 217.45 895.239 217.75 893.439 217.75C889.139 217.75 885.739 216.183 883.239 213.05C880.772 209.883 879.539 205.167 879.539 198.9C879.539 196.067 879.822 193.267 880.389 190.5C880.989 187.733 881.822 185.1 882.889 182.6C883.955 180.1 885.239 177.8 886.739 175.7C888.272 173.567 889.955 171.733 891.789 170.2C893.622 168.633 895.589 167.417 897.689 166.55C899.822 165.65 902.039 165.2 904.339 165.2C906.739 165.2 908.922 165.65 910.889 166.55C912.855 167.45 914.539 168.717 915.939 170.35L919.339 143H929.839ZM954.207 166L948.057 217H937.507L943.607 166H954.207ZM957.407 150.6C957.407 151.567 957.207 152.483 956.807 153.35C956.407 154.217 955.873 154.983 955.207 155.65C954.54 156.283 953.79 156.8 952.957 157.2C952.123 157.567 951.257 157.75 950.357 157.75C949.457 157.75 948.59 157.567 947.757 157.2C946.957 156.8 946.24 156.283 945.607 155.65C945.007 154.983 944.507 154.217 944.107 153.35C943.74 152.483 943.557 151.567 943.557 150.6C943.557 149.633 943.74 148.717 944.107 147.85C944.507 146.95 945.023 146.183 945.657 145.55C946.29 144.883 947.023 144.367 947.857 144C948.69 143.6 949.54 143.4 950.407 143.4C951.307 143.4 952.173 143.6 953.007 144C953.873 144.367 954.623 144.883 955.257 145.55C955.923 146.183 956.44 146.933 956.807 147.8C957.207 148.667 957.407 149.6 957.407 150.6ZM999.135 173.2C998.568 173.133 998.001 173.083 997.435 173.05C996.901 173.017 996.351 173 995.785 173C992.918 173 990.218 173.667 987.685 175C985.185 176.333 983.001 178.133 981.135 180.4C979.301 182.667 977.851 185.3 976.785 188.3C975.718 191.267 975.185 194.4 975.185 197.7C975.185 201.5 975.785 204.317 976.985 206.15C978.218 207.95 979.951 208.85 982.185 208.85C983.685 208.85 985.151 208.367 986.585 207.4C988.018 206.4 989.368 205.05 990.635 203.35C991.935 201.617 993.135 199.583 994.235 197.25C995.335 194.917 996.285 192.383 997.085 189.65L999.135 173.2ZM995.735 205.1C994.568 207.033 993.318 208.783 991.985 210.35C990.685 211.883 989.301 213.2 987.835 214.3C986.368 215.4 984.818 216.25 983.185 216.85C981.551 217.45 979.851 217.75 978.085 217.75C976.118 217.75 974.301 217.367 972.635 216.6C970.968 215.833 969.535 214.683 968.335 213.15C967.135 211.617 966.185 209.733 965.485 207.5C964.818 205.233 964.485 202.617 964.485 199.65C964.485 196.617 964.868 193.667 965.635 190.8C966.401 187.9 967.485 185.183 968.885 182.65C970.285 180.083 971.968 177.733 973.935 175.6C975.901 173.467 978.101 171.633 980.535 170.1C982.968 168.567 985.585 167.383 988.385 166.55C991.218 165.683 994.185 165.25 997.285 165.25C999.518 165.25 1001.73 165.433 1003.93 165.8C1006.13 166.133 1008.28 166.733 1010.38 167.6L1004.28 217H998.635C997.268 217 996.335 216.65 995.835 215.95C995.335 215.25 995.085 214.383 995.085 213.35L995.735 205.1Z" fill="black"/>
<path d="M275.155 145L245.705 217H235.505L226.605 164.65C226.505 164.05 226.405 163.4 226.305 162.7C226.238 162 226.172 161.267 226.105 160.5C225.838 161.267 225.572 162 225.305 162.7C225.072 163.4 224.822 164.05 224.555 164.65L202.805 217H192.655L180.855 145H189.705C190.672 145 191.455 145.25 192.055 145.75C192.655 146.217 193.005 146.85 193.105 147.65L200.105 194.8C200.205 195.8 200.288 196.867 200.355 198C200.455 199.133 200.538 200.317 200.605 201.55C200.972 200.283 201.355 199.083 201.755 197.95C202.188 196.817 202.605 195.767 203.005 194.8L222.605 147.65C222.905 146.983 223.405 146.383 224.105 145.85C224.838 145.283 225.688 145 226.655 145H229.255C230.222 145 230.988 145.25 231.555 145.75C232.155 146.25 232.555 146.883 232.755 147.65L240.805 194.8C240.972 195.767 241.122 196.8 241.255 197.9C241.388 199 241.488 200.15 241.555 201.35C241.922 200.15 242.272 199 242.605 197.9C242.938 196.8 243.272 195.767 243.605 194.8L262.155 147.65C262.388 146.95 262.888 146.333 263.655 145.8C264.455 145.267 265.338 145 266.305 145H275.155ZM294.796 166L288.646 217H278.096L284.196 166H294.796ZM297.996 150.6C297.996 151.567 297.796 152.483 297.396 153.35C296.996 154.217 296.463 154.983 295.796 155.65C295.13 156.283 294.38 156.8 293.546 157.2C292.713 157.567 291.846 157.75 290.946 157.75C290.046 157.75 289.18 157.567 288.346 157.2C287.546 156.8 286.83 156.283 286.196 155.65C285.596 154.983 285.096 154.217 284.696 153.35C284.33 152.483 284.146 151.567 284.146 150.6C284.146 149.633 284.33 148.717 284.696 147.85C285.096 146.95 285.613 146.183 286.246 145.55C286.88 144.883 287.613 144.367 288.446 144C289.28 143.6 290.13 143.4 290.996 143.4C291.896 143.4 292.763 143.6 293.596 144C294.463 144.367 295.213 144.883 295.846 145.55C296.513 146.183 297.03 146.933 297.396 147.8C297.796 148.667 297.996 149.6 297.996 150.6ZM309.575 206.95C309.575 206.717 309.575 206.45 309.575 206.15C309.608 205.817 309.641 205.35 309.675 204.75C309.741 204.15 309.825 203.35 309.925 202.35C310.025 201.35 310.175 200.067 310.375 198.5L313.325 174.45H308.175C307.608 174.45 307.158 174.267 306.825 173.9C306.491 173.5 306.375 172.917 306.475 172.15L306.975 167.8L314.725 166.6L318.725 151.85C318.925 151.283 319.225 150.833 319.625 150.5C320.058 150.133 320.575 149.95 321.175 149.95H326.875L324.775 166.7H337.625L336.725 174.45H323.825L320.975 197.9C320.808 199.267 320.675 200.367 320.575 201.2C320.475 202 320.391 202.65 320.325 203.15C320.291 203.617 320.258 203.95 320.225 204.15C320.225 204.317 320.225 204.45 320.225 204.55C320.225 206.017 320.575 207.133 321.275 207.9C321.975 208.667 322.941 209.05 324.175 209.05C324.975 209.05 325.658 208.95 326.225 208.75C326.791 208.517 327.291 208.283 327.725 208.05C328.158 207.783 328.525 207.55 328.825 207.35C329.125 207.117 329.408 207 329.675 207C330.041 207 330.308 207.083 330.475 207.25C330.641 207.383 330.808 207.633 330.975 208L333.275 213.25C331.508 214.717 329.541 215.85 327.375 216.65C325.241 217.417 323.075 217.8 320.875 217.8C317.441 217.8 314.725 216.867 312.725 215C310.725 213.1 309.675 210.417 309.575 206.95ZM361.16 175.85C363.726 172.317 366.526 169.667 369.56 167.9C372.593 166.1 375.71 165.2 378.91 165.2C381.076 165.2 382.993 165.633 384.66 166.5C386.36 167.333 387.743 168.583 388.81 170.25C389.876 171.883 390.61 173.9 391.01 176.3C391.41 178.7 391.41 181.45 391.01 184.55L387.21 217H376.51L380.31 184.55C380.776 180.917 380.576 178.267 379.71 176.6C378.843 174.9 377.243 174.05 374.91 174.05C373.51 174.05 372.06 174.45 370.56 175.25C369.093 176.017 367.676 177.117 366.31 178.55C364.943 179.95 363.643 181.667 362.41 183.7C361.21 185.7 360.193 187.933 359.36 190.4L356.16 217H345.46L354.41 143H365.11L361.16 175.85ZM556.718 154.15L553.818 177.7H579.468L578.268 186.8H552.718L548.968 217H537.668L546.518 145H588.018L586.868 154.15H556.718ZM602.904 179.15C604.204 176.45 605.604 174.133 607.104 172.2C608.637 170.267 610.22 168.75 611.854 167.65C613.52 166.55 615.22 165.9 616.954 165.7C618.72 165.5 620.487 165.783 622.254 166.55L620.304 176.85C616.07 175.15 612.354 175.7 609.154 178.5C605.987 181.267 603.437 186.517 601.504 194.25L598.804 217H588.304L594.454 165.9H599.854C601.02 165.9 601.904 166.2 602.504 166.8C603.137 167.367 603.454 168.267 603.454 169.5L602.904 179.15ZM646.004 209.35C648.238 209.35 650.271 208.733 652.104 207.5C653.938 206.233 655.488 204.55 656.754 202.45C658.054 200.35 659.054 197.933 659.754 195.2C660.454 192.433 660.804 189.55 660.804 186.55C660.804 182.15 659.988 178.9 658.354 176.8C656.754 174.667 654.371 173.6 651.204 173.6C648.938 173.6 646.888 174.217 645.054 175.45C643.254 176.683 641.721 178.333 640.454 180.4C639.188 182.467 638.204 184.883 637.504 187.65C636.804 190.417 636.454 193.317 636.454 196.35C636.454 205.017 639.638 209.35 646.004 209.35ZM645.054 217.75C642.254 217.75 639.671 217.283 637.304 216.35C634.938 215.383 632.888 214 631.154 212.2C629.454 210.367 628.121 208.133 627.154 205.5C626.188 202.833 625.704 199.817 625.704 196.45C625.704 192.083 626.388 188 627.754 184.2C629.154 180.4 631.054 177.1 633.454 174.3C635.854 171.467 638.654 169.25 641.854 167.65C645.088 166.017 648.538 165.2 652.204 165.2C655.004 165.2 657.588 165.683 659.954 166.65C662.321 167.583 664.354 168.967 666.054 170.8C667.754 172.6 669.088 174.833 670.054 177.5C671.021 180.133 671.504 183.133 671.504 186.5C671.504 189.367 671.188 192.133 670.554 194.8C669.921 197.467 669.038 199.967 667.904 202.3C666.771 204.6 665.388 206.7 663.754 208.6C662.154 210.5 660.371 212.133 658.404 213.5C656.471 214.833 654.371 215.883 652.104 216.65C649.838 217.383 647.488 217.75 645.054 217.75ZM681.655 217L687.805 165.9H693.205C694.372 165.9 695.255 166.2 695.855 166.8C696.488 167.367 696.805 168.267 696.805 169.5L696.355 176.7C698.755 172.867 701.355 170 704.155 168.1C706.988 166.167 709.972 165.2 713.105 165.2C716.372 165.2 718.872 166.317 720.605 168.55C722.338 170.75 723.272 173.933 723.405 178.1C725.872 173.667 728.622 170.417 731.655 168.35C734.688 166.25 737.938 165.2 741.405 165.2C745.738 165.2 748.888 166.883 750.855 170.25C752.822 173.617 753.438 178.383 752.705 184.55L748.855 217H738.305L742.105 184.55C742.338 182.75 742.422 181.2 742.355 179.9C742.322 178.567 742.122 177.483 741.755 176.65C741.422 175.783 740.905 175.15 740.205 174.75C739.538 174.35 738.655 174.15 737.555 174.15C736.222 174.15 734.888 174.5 733.555 175.2C732.255 175.9 731.005 176.917 729.805 178.25C728.605 179.583 727.488 181.217 726.455 183.15C725.422 185.083 724.505 187.283 723.705 189.75L720.505 217H709.955L713.805 184.55C714.038 182.75 714.138 181.2 714.105 179.9C714.072 178.567 713.888 177.483 713.555 176.65C713.222 175.783 712.722 175.15 712.055 174.75C711.388 174.35 710.505 174.15 709.405 174.15C707.938 174.15 706.538 174.533 705.205 175.3C703.872 176.033 702.605 177.1 701.405 178.5C700.205 179.9 699.088 181.617 698.055 183.65C697.022 185.65 696.105 187.917 695.305 190.45L692.155 217H681.655ZM804.418 217H793.118L801.918 145H813.218L804.418 217ZM836.625 177.55C839.259 173.417 842.209 170.333 845.475 168.3C848.742 166.233 852.109 165.2 855.575 165.2C857.709 165.2 859.609 165.633 861.275 166.5C862.942 167.333 864.309 168.583 865.375 170.25C866.442 171.883 867.175 173.9 867.575 176.3C867.975 178.7 867.992 181.45 867.625 184.55L863.775 217H853.075L856.925 184.55C857.392 180.917 857.175 178.283 856.275 176.65C855.409 174.983 853.825 174.15 851.525 174.15C850.059 174.15 848.542 174.567 846.975 175.4C845.442 176.233 843.959 177.417 842.525 178.95C841.125 180.45 839.809 182.283 838.575 184.45C837.342 186.583 836.325 188.967 835.525 191.6L832.725 217H822.025L828.125 165.9H833.525C834.692 165.9 835.575 166.2 836.175 166.8C836.809 167.367 837.125 168.267 837.125 169.5L836.625 177.55ZM915.039 177.5C913.839 176.033 912.422 175.017 910.789 174.45C909.189 173.85 907.589 173.55 905.989 173.55C903.589 173.55 901.405 174.283 899.439 175.75C897.505 177.183 895.839 179.067 894.439 181.4C893.072 183.7 892.005 186.3 891.239 189.2C890.505 192.067 890.139 194.933 890.139 197.8C890.139 201.567 890.789 204.4 892.089 206.3C893.389 208.2 895.205 209.15 897.539 209.15C899.005 209.15 900.505 208.667 902.039 207.7C903.572 206.733 905.039 205.4 906.439 203.7C907.839 202 909.139 199.983 910.339 197.65C911.572 195.317 912.622 192.783 913.489 190.05L915.039 177.5ZM929.839 143L920.689 217H915.039C913.672 217 912.739 216.65 912.239 215.95C911.772 215.25 911.539 214.383 911.539 213.35L912.189 204.65C910.922 206.65 909.572 208.45 908.139 210.05C906.705 211.65 905.189 213.033 903.589 214.2C902.022 215.333 900.389 216.217 898.689 216.85C896.989 217.45 895.239 217.75 893.439 217.75C889.139 217.75 885.739 216.183 883.239 213.05C880.772 209.883 879.539 205.167 879.539 198.9C879.539 196.067 879.822 193.267 880.389 190.5C880.989 187.733 881.822 185.1 882.889 182.6C883.955 180.1 885.239 177.8 886.739 175.7C888.272 173.567 889.955 171.733 891.789 170.2C893.622 168.633 895.589 167.417 897.689 166.55C899.822 165.65 902.039 165.2 904.339 165.2C906.739 165.2 908.922 165.65 910.889 166.55C912.855 167.45 914.539 168.717 915.939 170.35L919.339 143H929.839ZM954.207 166L948.057 217H937.507L943.607 166H954.207ZM957.407 150.6C957.407 151.567 957.207 152.483 956.807 153.35C956.407 154.217 955.873 154.983 955.207 155.65C954.54 156.283 953.79 156.8 952.957 157.2C952.123 157.567 951.257 157.75 950.357 157.75C949.457 157.75 948.59 157.567 947.757 157.2C946.957 156.8 946.24 156.283 945.607 155.65C945.007 154.983 944.507 154.217 944.107 153.35C943.74 152.483 943.557 151.567 943.557 150.6C943.557 149.633 943.74 148.717 944.107 147.85C944.507 146.95 945.023 146.183 945.657 145.55C946.29 144.883 947.023 144.367 947.857 144C948.69 143.6 949.54 143.4 950.407 143.4C951.307 143.4 952.173 143.6 953.007 144C953.873 144.367 954.623 144.883 955.257 145.55C955.923 146.183 956.44 146.933 956.807 147.8C957.207 148.667 957.407 149.6 957.407 150.6ZM999.135 173.2C998.568 173.133 998.001 173.083 997.435 173.05C996.901 173.017 996.351 173 995.785 173C992.918 173 990.218 173.667 987.685 175C985.185 176.333 983.001 178.133 981.135 180.4C979.301 182.667 977.851 185.3 976.785 188.3C975.718 191.267 975.185 194.4 975.185 197.7C975.185 201.5 975.785 204.317 976.985 206.15C978.218 207.95 979.951 208.85 982.185 208.85C983.685 208.85 985.151 208.367 986.585 207.4C988.018 206.4 989.368 205.05 990.635 203.35C991.935 201.617 993.135 199.583 994.235 197.25C995.335 194.917 996.285 192.383 997.085 189.65L999.135 173.2ZM995.735 205.1C994.568 207.033 993.318 208.783 991.985 210.35C990.685 211.883 989.301 213.2 987.835 214.3C986.368 215.4 984.818 216.25 983.185 216.85C981.551 217.45 979.851 217.75 978.085 217.75C976.118 217.75 974.301 217.367 972.635 216.6C970.968 215.833 969.535 214.683 968.335 213.15C967.135 211.617 966.185 209.733 965.485 207.5C964.818 205.233 964.485 202.617 964.485 199.65C964.485 196.617 964.868 193.667 965.635 190.8C966.401 187.9 967.485 185.183 968.885 182.65C970.285 180.083 971.968 177.733 973.935 175.6C975.901 173.467 978.101 171.633 980.535 170.1C982.968 168.567 985.585 167.383 988.385 166.55C991.218 165.683 994.185 165.25 997.285 165.25C999.518 165.25 1001.73 165.433 1003.93 165.8C1006.13 166.133 1008.28 166.733 1010.38 167.6L1004.28 217H998.635C997.268 217 996.335 216.65 995.835 215.95C995.335 215.25 995.085 214.383 995.085 213.35L995.735 205.1Z" fill="black" fill-opacity="0.18"/>
</g>
</g>
<path d="M447.615 113C434.404 113 430 123.214 430 135.814C430 158.627 455.762 179.367 469.633 184.191C483.505 179.367 509.267 158.627 509.267 135.814C509.267 123.214 503.691 113 491.652 113C484.279 113 473.578 122.957 469.633 128.82C465.688 122.957 454.987 113 447.615 113Z" fill="#2F88FF" stroke="black" stroke-opacity="0.89" stroke-width="4" stroke-linecap="round" stroke-linejoin="round"/>
<path d="M469.633 184.191C463.028 187.721 453.119 195.517 453.119 206.843C453.119 218.169 486.147 214.933 486.147 226.259C486.147 237.585 449.817 242.439 449.817 242.439" stroke="black" stroke-opacity="0.89" stroke-width="4" stroke-linecap="round" stroke-linejoin="round"/>
<defs>
<filter id="filter0_dd_0_1" x="176.855" y="143" width="837.53" height="82.8" filterUnits="userSpaceOnUse" color-interpolation-filters="sRGB">
<feFlood flood-opacity="0" result="BackgroundImageFix"/>
<feColorMatrix in="SourceAlpha" type="matrix" values="0 0 0 0 0 0 0 0 0 0 0 0 0 0 0 0 0 0 127 0" result="hardAlpha"/>
<feOffset dy="4"/>
<feGaussianBlur stdDeviation="2"/>
<feComposite in2="hardAlpha" operator="out"/>
<feColorMatrix type="matrix" values="0 0 0 0 0 0 0 0 0 0 0 0 0 0 0 0 0 0 0.25 0"/>
<feBlend mode="normal" in2="BackgroundImageFix" result="effect1_dropShadow_0_1"/>
<feColorMatrix in="SourceAlpha" type="matrix" values="0 0 0 0 0 0 0 0 0 0 0 0 0 0 0 0 0 0 127 0" result="hardAlpha"/>
<feOffset dy="4"/>
<feGaussianBlur stdDeviation="2"/>
<feComposite in2="hardAlpha" operator="out"/>
<feColorMatrix type="matrix" values="0 0 0 0 0 0 0 0 0 0 0 0 0 0 0 0 0 0 0.25 0"/>
<feBlend mode="normal" in2="effect1_dropShadow_0_1" result="effect2_dropShadow_0_1"/>
<feBlend mode="normal" in="SourceGraphic" in2="effect2_dropShadow_0_1" result="shape"/>
</filter>
</defs>
</svg>
