<svg width="1140" height="342" viewBox="0 0 1140 342" fill="none" xmlns="http://www.w3.org/2000/svg">
<g clip-path="url(#clip0_1_2)">
<mask id="mask0_1_2" style="mask-type:luminance" maskUnits="userSpaceOnUse" x="0" y="0" width="1140" height="342">
<path d="M1140 0H0V342H1140V0Z" fill="white"/>
</mask>
<g mask="url(#mask0_1_2)">
<path d="M344 250C196.8 200 48.5 275 2.5 337.5L-56 410V-109H1163.5L1180.5 285.5C1128.9 214.7 929.5 208.207 821 250C712.5 291.793 491.2 300 344 250Z" fill="url(#paint0_linear_1_2)"/>
</g>
<g filter="url(#filter0_dd_1_2)">
<path d="M313.375 126.788C315.634 123.679 318.098 121.347 320.767 119.792C323.436 118.208 326.179 117.416 328.995 117.416C330.902 117.416 332.588 117.797 334.055 118.56C335.551 119.293 336.768 120.393 337.707 121.86C338.646 123.297 339.291 125.072 339.643 127.184C339.995 129.296 339.995 131.716 339.643 134.444L336.299 163H326.883L330.227 134.444C330.638 131.247 330.462 128.915 329.699 127.448C328.936 125.952 327.528 125.204 325.475 125.204C324.243 125.204 322.967 125.556 321.647 126.26C320.356 126.935 319.11 127.903 317.907 129.164C316.704 130.396 315.56 131.907 314.475 133.696C313.419 135.456 312.524 137.421 311.791 139.592L308.975 163H299.559L307.435 97.88H316.851L313.375 126.788ZM373.273 124.192C371.63 124.192 370.105 124.529 368.697 125.204C367.318 125.879 366.071 126.817 364.957 128.02C363.871 129.193 362.918 130.601 362.097 132.244C361.305 133.887 360.689 135.676 360.249 137.612C364.297 137.084 367.553 136.497 370.017 135.852C372.481 135.207 374.373 134.503 375.693 133.74C377.013 132.977 377.893 132.171 378.333 131.32C378.773 130.44 378.993 129.516 378.993 128.548C378.993 128.079 378.89 127.58 378.685 127.052C378.479 126.524 378.142 126.055 377.673 125.644C377.233 125.233 376.646 124.896 375.913 124.632C375.179 124.339 374.299 124.192 373.273 124.192ZM386.429 154.684C384.903 156.239 383.407 157.588 381.941 158.732C380.474 159.847 378.978 160.771 377.453 161.504C375.927 162.237 374.329 162.78 372.657 163.132C370.985 163.484 369.166 163.66 367.201 163.66C364.59 163.66 362.243 163.22 360.161 162.34C358.078 161.46 356.289 160.228 354.793 158.644C353.326 157.031 352.197 155.095 351.405 152.836C350.613 150.548 350.217 147.996 350.217 145.18C350.217 142.833 350.466 140.531 350.965 138.272C351.463 135.984 352.182 133.813 353.121 131.76C354.089 129.707 355.247 127.815 356.597 126.084C357.975 124.324 359.53 122.813 361.261 121.552C363.021 120.291 364.942 119.308 367.025 118.604C369.137 117.871 371.395 117.504 373.801 117.504C376.118 117.504 378.127 117.841 379.829 118.516C381.53 119.161 382.938 120.012 384.053 121.068C385.197 122.095 386.047 123.239 386.605 124.5C387.162 125.761 387.441 126.993 387.441 128.196C387.441 130.161 387.03 131.965 386.209 133.608C385.417 135.251 383.979 136.732 381.897 138.052C379.814 139.372 376.954 140.516 373.317 141.484C369.709 142.452 365.074 143.229 359.413 143.816C359.383 143.992 359.369 144.183 359.369 144.388C359.369 144.564 359.369 144.755 359.369 144.96C359.369 148.685 360.175 151.501 361.789 153.408C363.402 155.285 365.822 156.224 369.049 156.224C371.073 156.224 372.759 155.945 374.109 155.388C375.458 154.831 376.602 154.229 377.541 153.584C378.509 152.909 379.345 152.293 380.049 151.736C380.782 151.179 381.545 150.9 382.337 150.9C382.953 150.9 383.525 151.193 384.053 151.78L386.429 154.684ZM437.617 118.12L407.653 175.848C406.949 177.227 405.907 177.916 404.529 177.916H397.533L407.389 159.876L395.949 118.12H403.781C404.514 118.12 405.057 118.311 405.409 118.692C405.761 119.044 405.995 119.469 406.113 119.968L412.449 145.444C412.595 146.119 412.713 146.808 412.801 147.512C412.918 148.216 413.006 148.905 413.065 149.58C413.358 148.876 413.651 148.187 413.945 147.512C414.267 146.808 414.59 146.104 414.913 145.4L427.453 119.924C427.717 119.396 428.083 118.971 428.553 118.648C429.051 118.296 429.565 118.12 430.093 118.12H437.617ZM443.186 162.956C442.335 162.956 441.558 162.809 440.854 162.516C440.15 162.193 439.549 161.768 439.05 161.24C438.551 160.683 438.155 160.037 437.862 159.304C437.598 158.571 437.466 157.764 437.466 156.884C437.466 155.329 437.994 154.024 439.05 152.968C440.106 151.912 441.514 151.384 443.274 151.384C444.271 151.384 445.151 151.575 445.914 151.956C446.677 152.308 447.307 152.807 447.806 153.452C448.334 154.068 448.715 154.801 448.95 155.652C449.214 156.473 449.346 157.353 449.346 158.292C449.346 159.641 449.141 161.064 448.73 162.56C448.349 164.056 447.762 165.537 446.97 167.004C446.207 168.5 445.254 169.952 444.11 171.36C442.995 172.768 441.719 174.059 440.282 175.232L438.61 173.692C438.17 173.281 437.95 172.812 437.95 172.284C437.95 171.903 438.185 171.433 438.654 170.876C439.153 170.319 439.71 169.644 440.326 168.852C440.942 168.089 441.543 167.224 442.13 166.256C442.746 165.288 443.171 164.188 443.406 162.956H443.186ZM500.303 118.12L494.891 163H485.607L490.975 118.12H500.303ZM503.119 104.568C503.119 105.419 502.943 106.225 502.591 106.988C502.239 107.751 501.769 108.425 501.183 109.012C500.596 109.569 499.936 110.024 499.203 110.376C498.469 110.699 497.707 110.86 496.915 110.86C496.123 110.86 495.36 110.699 494.627 110.376C493.923 110.024 493.292 109.569 492.735 109.012C492.207 108.425 491.767 107.751 491.415 106.988C491.092 106.225 490.931 105.419 490.931 104.568C490.931 103.717 491.092 102.911 491.415 102.148C491.767 101.356 492.221 100.681 492.779 100.124C493.336 99.5373 493.981 99.0827 494.715 98.76C495.448 98.408 496.196 98.232 496.959 98.232C497.751 98.232 498.513 98.408 499.247 98.76C500.009 99.0827 500.669 99.5373 501.227 100.124C501.813 100.681 502.268 101.341 502.591 102.104C502.943 102.867 503.119 103.688 503.119 104.568ZM524.616 99.684L523.032 112.4L521.36 119.264C521.066 120.349 520.656 121.185 520.128 121.772C519.6 122.359 518.822 122.652 517.796 122.652C516.886 122.652 516.226 122.359 515.816 121.772C515.434 121.185 515.2 120.349 515.112 119.264V112.4L516.696 99.684H524.616ZM530.621 163L536.033 118.032H540.785C541.811 118.032 542.589 118.296 543.117 118.824C543.674 119.323 543.953 120.115 543.953 121.2L543.557 127.536C545.669 124.163 547.957 121.64 550.421 119.968C552.914 118.267 555.539 117.416 558.297 117.416C561.171 117.416 563.371 118.399 564.897 120.364C566.422 122.3 567.243 125.101 567.361 128.768C569.531 124.867 571.951 122.007 574.621 120.188C577.29 118.34 580.15 117.416 583.201 117.416C587.014 117.416 589.786 118.897 591.517 121.86C593.247 124.823 593.79 129.017 593.145 134.444L589.757 163H580.473L583.817 134.444C584.022 132.86 584.095 131.496 584.037 130.352C584.007 129.179 583.831 128.225 583.509 127.492C583.215 126.729 582.761 126.172 582.145 125.82C581.558 125.468 580.781 125.292 579.813 125.292C578.639 125.292 577.466 125.6 576.293 126.216C575.149 126.832 574.049 127.727 572.993 128.9C571.937 130.073 570.954 131.511 570.045 133.212C569.135 134.913 568.329 136.849 567.625 139.02L564.809 163H555.525L558.913 134.444C559.118 132.86 559.206 131.496 559.177 130.352C559.147 129.179 558.986 128.225 558.693 127.492C558.399 126.729 557.959 126.172 557.373 125.82C556.786 125.468 556.009 125.292 555.041 125.292C553.75 125.292 552.518 125.629 551.345 126.304C550.171 126.949 549.057 127.888 548.001 129.12C546.945 130.352 545.962 131.863 545.053 133.652C544.143 135.412 543.337 137.407 542.633 139.636L539.861 163H530.621ZM672.946 107.912H654.994L648.218 163H638.362L645.094 107.912H627.054L628.022 99.64H674.002L672.946 107.912ZM691.668 118.12L686.256 163H676.972L682.34 118.12H691.668ZM694.484 104.568C694.484 105.419 694.308 106.225 693.956 106.988C693.604 107.751 693.135 108.425 692.548 109.012C691.962 109.569 691.302 110.024 690.568 110.376C689.835 110.699 689.072 110.86 688.28 110.86C687.488 110.86 686.726 110.699 685.992 110.376C685.288 110.024 684.658 109.569 684.1 109.012C683.572 108.425 683.132 107.751 682.78 106.988C682.458 106.225 682.296 105.419 682.296 104.568C682.296 103.717 682.458 102.911 682.78 102.148C683.132 101.356 683.587 100.681 684.144 100.124C684.702 99.5373 685.347 99.0827 686.08 98.76C686.814 98.408 687.562 98.232 688.324 98.232C689.116 98.232 689.879 98.408 690.612 98.76C691.375 99.0827 692.035 99.5373 692.592 100.124C693.179 100.681 693.634 101.341 693.956 102.104C694.308 102.867 694.484 103.688 694.484 104.568ZM713.869 129.692C715.013 127.316 716.245 125.277 717.565 123.576C718.914 121.875 720.308 120.54 721.745 119.572C723.212 118.604 724.708 118.032 726.233 117.856C727.788 117.68 729.342 117.929 730.897 118.604L729.181 127.668C725.456 126.172 722.185 126.656 719.369 129.12C716.582 131.555 714.338 136.175 712.637 142.98L710.261 163H701.021L706.433 118.032H711.185C712.212 118.032 712.989 118.296 713.517 118.824C714.074 119.323 714.353 120.115 714.353 121.2L713.869 129.692ZM738.787 154.156C738.787 153.951 738.787 153.716 738.787 153.452C738.816 153.159 738.846 152.748 738.875 152.22C738.934 151.692 739.007 150.988 739.095 150.108C739.183 149.228 739.315 148.099 739.491 146.72L742.087 125.556H737.555C737.056 125.556 736.66 125.395 736.367 125.072C736.074 124.72 735.971 124.207 736.059 123.532L736.499 119.704L743.319 118.648L746.839 105.668C747.015 105.169 747.279 104.773 747.631 104.48C748.012 104.157 748.467 103.996 748.995 103.996H754.011L752.163 118.736H763.471L762.679 125.556H751.327L748.819 146.192C748.672 147.395 748.555 148.363 748.467 149.096C748.379 149.8 748.306 150.372 748.247 150.812C748.218 151.223 748.188 151.516 748.159 151.692C748.159 151.839 748.159 151.956 748.159 152.044C748.159 153.335 748.467 154.317 749.083 154.992C749.699 155.667 750.55 156.004 751.635 156.004C752.339 156.004 752.94 155.916 753.439 155.74C753.938 155.535 754.378 155.329 754.759 155.124C755.14 154.889 755.463 154.684 755.727 154.508C755.991 154.303 756.24 154.2 756.475 154.2C756.798 154.2 757.032 154.273 757.179 154.42C757.326 154.537 757.472 154.757 757.619 155.08L759.643 159.7C758.088 160.991 756.358 161.988 754.451 162.692C752.574 163.367 750.667 163.704 748.731 163.704C745.71 163.704 743.319 162.883 741.559 161.24C739.799 159.568 738.875 157.207 738.787 154.156ZM784.182 126.788C786.441 123.679 788.905 121.347 791.574 119.792C794.243 118.208 796.986 117.416 799.802 117.416C801.709 117.416 803.395 117.797 804.862 118.56C806.358 119.293 807.575 120.393 808.514 121.86C809.453 123.297 810.098 125.072 810.45 127.184C810.802 129.296 810.802 131.716 810.45 134.444L807.106 163H797.69L801.034 134.444C801.445 131.247 801.269 128.915 800.506 127.448C799.743 125.952 798.335 125.204 796.282 125.204C795.05 125.204 793.774 125.556 792.454 126.26C791.163 126.935 789.917 127.903 788.714 129.164C787.511 130.396 786.367 131.907 785.282 133.696C784.226 135.456 783.331 137.421 782.598 139.592L779.782 163H770.366L778.242 97.88H787.658L784.182 126.788ZM838.712 99.64L835.632 124.852C835.485 126.172 835.294 127.477 835.06 128.768C834.854 130.029 834.62 131.305 834.356 132.596C834.092 133.887 833.798 135.207 833.476 136.556C833.153 137.905 832.816 139.328 832.464 140.824H826.304C826.304 139.328 826.304 137.905 826.304 136.556C826.333 135.207 826.377 133.887 826.436 132.596C826.494 131.305 826.568 130.029 826.656 128.768C826.773 127.477 826.92 126.172 827.096 124.852L830.176 99.64H838.712ZM821.816 157.544C821.816 156.693 821.962 155.901 822.256 155.168C822.578 154.405 823.018 153.745 823.576 153.188C824.133 152.631 824.778 152.191 825.512 151.868C826.245 151.545 827.052 151.384 827.932 151.384C828.782 151.384 829.574 151.545 830.308 151.868C831.07 152.191 831.716 152.631 832.244 153.188C832.801 153.745 833.241 154.405 833.564 155.168C833.886 155.901 834.048 156.693 834.048 157.544C834.048 158.424 833.886 159.231 833.564 159.964C833.241 160.697 832.801 161.343 832.244 161.9C831.716 162.457 831.07 162.883 830.308 163.176C829.574 163.499 828.782 163.66 827.932 163.66C827.052 163.66 826.245 163.499 825.512 163.176C824.778 162.883 824.133 162.457 823.576 161.9C823.018 161.343 822.578 160.697 822.256 159.964C821.962 159.231 821.816 158.424 821.816 157.544Z" fill="white"/>
<path d="M313.375 126.788C315.634 123.679 318.098 121.347 320.767 119.792C323.436 118.208 326.179 117.416 328.995 117.416C330.902 117.416 332.588 117.797 334.055 118.56C335.551 119.293 336.768 120.393 337.707 121.86C338.646 123.297 339.291 125.072 339.643 127.184C339.995 129.296 339.995 131.716 339.643 134.444L336.299 163H326.883L330.227 134.444C330.638 131.247 330.462 128.915 329.699 127.448C328.936 125.952 327.528 125.204 325.475 125.204C324.243 125.204 322.967 125.556 321.647 126.26C320.356 126.935 319.11 127.903 317.907 129.164C316.704 130.396 315.56 131.907 314.475 133.696C313.419 135.456 312.524 137.421 311.791 139.592L308.975 163H299.559L307.435 97.88H316.851L313.375 126.788ZM373.273 124.192C371.63 124.192 370.105 124.529 368.697 125.204C367.318 125.879 366.071 126.817 364.957 128.02C363.871 129.193 362.918 130.601 362.097 132.244C361.305 133.887 360.689 135.676 360.249 137.612C364.297 137.084 367.553 136.497 370.017 135.852C372.481 135.207 374.373 134.503 375.693 133.74C377.013 132.977 377.893 132.171 378.333 131.32C378.773 130.44 378.993 129.516 378.993 128.548C378.993 128.079 378.89 127.58 378.685 127.052C378.479 126.524 378.142 126.055 377.673 125.644C377.233 125.233 376.646 124.896 375.913 124.632C375.179 124.339 374.299 124.192 373.273 124.192ZM386.429 154.684C384.903 156.239 383.407 157.588 381.941 158.732C380.474 159.847 378.978 160.771 377.453 161.504C375.927 162.237 374.329 162.78 372.657 163.132C370.985 163.484 369.166 163.66 367.201 163.66C364.59 163.66 362.243 163.22 360.161 162.34C358.078 161.46 356.289 160.228 354.793 158.644C353.326 157.031 352.197 155.095 351.405 152.836C350.613 150.548 350.217 147.996 350.217 145.18C350.217 142.833 350.466 140.531 350.965 138.272C351.463 135.984 352.182 133.813 353.121 131.76C354.089 129.707 355.247 127.815 356.597 126.084C357.975 124.324 359.53 122.813 361.261 121.552C363.021 120.291 364.942 119.308 367.025 118.604C369.137 117.871 371.395 117.504 373.801 117.504C376.118 117.504 378.127 117.841 379.829 118.516C381.53 119.161 382.938 120.012 384.053 121.068C385.197 122.095 386.047 123.239 386.605 124.5C387.162 125.761 387.441 126.993 387.441 128.196C387.441 130.161 387.03 131.965 386.209 133.608C385.417 135.251 383.979 136.732 381.897 138.052C379.814 139.372 376.954 140.516 373.317 141.484C369.709 142.452 365.074 143.229 359.413 143.816C359.383 143.992 359.369 144.183 359.369 144.388C359.369 144.564 359.369 144.755 359.369 144.96C359.369 148.685 360.175 151.501 361.789 153.408C363.402 155.285 365.822 156.224 369.049 156.224C371.073 156.224 372.759 155.945 374.109 155.388C375.458 154.831 376.602 154.229 377.541 153.584C378.509 152.909 379.345 152.293 380.049 151.736C380.782 151.179 381.545 150.9 382.337 150.9C382.953 150.9 383.525 151.193 384.053 151.78L386.429 154.684ZM437.617 118.12L407.653 175.848C406.949 177.227 405.907 177.916 404.529 177.916H397.533L407.389 159.876L395.949 118.12H403.781C404.514 118.12 405.057 118.311 405.409 118.692C405.761 119.044 405.995 119.469 406.113 119.968L412.449 145.444C412.595 146.119 412.713 146.808 412.801 147.512C412.918 148.216 413.006 148.905 413.065 149.58C413.358 148.876 413.651 148.187 413.945 147.512C414.267 146.808 414.59 146.104 414.913 145.4L427.453 119.924C427.717 119.396 428.083 118.971 428.553 118.648C429.051 118.296 429.565 118.12 430.093 118.12H437.617ZM443.186 162.956C442.335 162.956 441.558 162.809 440.854 162.516C440.15 162.193 439.549 161.768 439.05 161.24C438.551 160.683 438.155 160.037 437.862 159.304C437.598 158.571 437.466 157.764 437.466 156.884C437.466 155.329 437.994 154.024 439.05 152.968C440.106 151.912 441.514 151.384 443.274 151.384C444.271 151.384 445.151 151.575 445.914 151.956C446.677 152.308 447.307 152.807 447.806 153.452C448.334 154.068 448.715 154.801 448.95 155.652C449.214 156.473 449.346 157.353 449.346 158.292C449.346 159.641 449.141 161.064 448.73 162.56C448.349 164.056 447.762 165.537 446.97 167.004C446.207 168.5 445.254 169.952 444.11 171.36C442.995 172.768 441.719 174.059 440.282 175.232L438.61 173.692C438.17 173.281 437.95 172.812 437.95 172.284C437.95 171.903 438.185 171.433 438.654 170.876C439.153 170.319 439.71 169.644 440.326 168.852C440.942 168.089 441.543 167.224 442.13 166.256C442.746 165.288 443.171 164.188 443.406 162.956H443.186ZM500.303 118.12L494.891 163H485.607L490.975 118.12H500.303ZM503.119 104.568C503.119 105.419 502.943 106.225 502.591 106.988C502.239 107.751 501.769 108.425 501.183 109.012C500.596 109.569 499.936 110.024 499.203 110.376C498.469 110.699 497.707 110.86 496.915 110.86C496.123 110.86 495.36 110.699 494.627 110.376C493.923 110.024 493.292 109.569 492.735 109.012C492.207 108.425 491.767 107.751 491.415 106.988C491.092 106.225 490.931 105.419 490.931 104.568C490.931 103.717 491.092 102.911 491.415 102.148C491.767 101.356 492.221 100.681 492.779 100.124C493.336 99.5373 493.981 99.0827 494.715 98.76C495.448 98.408 496.196 98.232 496.959 98.232C497.751 98.232 498.513 98.408 499.247 98.76C500.009 99.0827 500.669 99.5373 501.227 100.124C501.813 100.681 502.268 101.341 502.591 102.104C502.943 102.867 503.119 103.688 503.119 104.568ZM524.616 99.684L523.032 112.4L521.36 119.264C521.066 120.349 520.656 121.185 520.128 121.772C519.6 122.359 518.822 122.652 517.796 122.652C516.886 122.652 516.226 122.359 515.816 121.772C515.434 121.185 515.2 120.349 515.112 119.264V112.4L516.696 99.684H524.616ZM530.621 163L536.033 118.032H540.785C541.811 118.032 542.589 118.296 543.117 118.824C543.674 119.323 543.953 120.115 543.953 121.2L543.557 127.536C545.669 124.163 547.957 121.64 550.421 119.968C552.914 118.267 555.539 117.416 558.297 117.416C561.171 117.416 563.371 118.399 564.897 120.364C566.422 122.3 567.243 125.101 567.361 128.768C569.531 124.867 571.951 122.007 574.621 120.188C577.29 118.34 580.15 117.416 583.201 117.416C587.014 117.416 589.786 118.897 591.517 121.86C593.247 124.823 593.79 129.017 593.145 134.444L589.757 163H580.473L583.817 134.444C584.022 132.86 584.095 131.496 584.037 130.352C584.007 129.179 583.831 128.225 583.509 127.492C583.215 126.729 582.761 126.172 582.145 125.82C581.558 125.468 580.781 125.292 579.813 125.292C578.639 125.292 577.466 125.6 576.293 126.216C575.149 126.832 574.049 127.727 572.993 128.9C571.937 130.073 570.954 131.511 570.045 133.212C569.135 134.913 568.329 136.849 567.625 139.02L564.809 163H555.525L558.913 134.444C559.118 132.86 559.206 131.496 559.177 130.352C559.147 129.179 558.986 128.225 558.693 127.492C558.399 126.729 557.959 126.172 557.373 125.82C556.786 125.468 556.009 125.292 555.041 125.292C553.75 125.292 552.518 125.629 551.345 126.304C550.171 126.949 549.057 127.888 548.001 129.12C546.945 130.352 545.962 131.863 545.053 133.652C544.143 135.412 543.337 137.407 542.633 139.636L539.861 163H530.621ZM672.946 107.912H654.994L648.218 163H638.362L645.094 107.912H627.054L628.022 99.64H674.002L672.946 107.912ZM691.668 118.12L686.256 163H676.972L682.34 118.12H691.668ZM694.484 104.568C694.484 105.419 694.308 106.225 693.956 106.988C693.604 107.751 693.135 108.425 692.548 109.012C691.962 109.569 691.302 110.024 690.568 110.376C689.835 110.699 689.072 110.86 688.28 110.86C687.488 110.86 686.726 110.699 685.992 110.376C685.288 110.024 684.658 109.569 684.1 109.012C683.572 108.425 683.132 107.751 682.78 106.988C682.458 106.225 682.296 105.419 682.296 104.568C682.296 103.717 682.458 102.911 682.78 102.148C683.132 101.356 683.587 100.681 684.144 100.124C684.702 99.5373 685.347 99.0827 686.08 98.76C686.814 98.408 687.562 98.232 688.324 98.232C689.116 98.232 689.879 98.408 690.612 98.76C691.375 99.0827 692.035 99.5373 692.592 100.124C693.179 100.681 693.634 101.341 693.956 102.104C694.308 102.867 694.484 103.688 694.484 104.568ZM713.869 129.692C715.013 127.316 716.245 125.277 717.565 123.576C718.914 121.875 720.308 120.54 721.745 119.572C723.212 118.604 724.708 118.032 726.233 117.856C727.788 117.68 729.342 117.929 730.897 118.604L729.181 127.668C725.456 126.172 722.185 126.656 719.369 129.12C716.582 131.555 714.338 136.175 712.637 142.98L710.261 163H701.021L706.433 118.032H711.185C712.212 118.032 712.989 118.296 713.517 118.824C714.074 119.323 714.353 120.115 714.353 121.2L713.869 129.692ZM738.787 154.156C738.787 153.951 738.787 153.716 738.787 153.452C738.816 153.159 738.846 152.748 738.875 152.22C738.934 151.692 739.007 150.988 739.095 150.108C739.183 149.228 739.315 148.099 739.491 146.72L742.087 125.556H737.555C737.056 125.556 736.66 125.395 736.367 125.072C736.074 124.72 735.971 124.207 736.059 123.532L736.499 119.704L743.319 118.648L746.839 105.668C747.015 105.169 747.279 104.773 747.631 104.48C748.012 104.157 748.467 103.996 748.995 103.996H754.011L752.163 118.736H763.471L762.679 125.556H751.327L748.819 146.192C748.672 147.395 748.555 148.363 748.467 149.096C748.379 149.8 748.306 150.372 748.247 150.812C748.218 151.223 748.188 151.516 748.159 151.692C748.159 151.839 748.159 151.956 748.159 152.044C748.159 153.335 748.467 154.317 749.083 154.992C749.699 155.667 750.55 156.004 751.635 156.004C752.339 156.004 752.94 155.916 753.439 155.74C753.938 155.535 754.378 155.329 754.759 155.124C755.14 154.889 755.463 154.684 755.727 154.508C755.991 154.303 756.24 154.2 756.475 154.2C756.798 154.2 757.032 154.273 757.179 154.42C757.326 154.537 757.472 154.757 757.619 155.08L759.643 159.7C758.088 160.991 756.358 161.988 754.451 162.692C752.574 163.367 750.667 163.704 748.731 163.704C745.71 163.704 743.319 162.883 741.559 161.24C739.799 159.568 738.875 157.207 738.787 154.156ZM784.182 126.788C786.441 123.679 788.905 121.347 791.574 119.792C794.243 118.208 796.986 117.416 799.802 117.416C801.709 117.416 803.395 117.797 804.862 118.56C806.358 119.293 807.575 120.393 808.514 121.86C809.453 123.297 810.098 125.072 810.45 127.184C810.802 129.296 810.802 131.716 810.45 134.444L807.106 163H797.69L801.034 134.444C801.445 131.247 801.269 128.915 800.506 127.448C799.743 125.952 798.335 125.204 796.282 125.204C795.05 125.204 793.774 125.556 792.454 126.26C791.163 126.935 789.917 127.903 788.714 129.164C787.511 130.396 786.367 131.907 785.282 133.696C784.226 135.456 783.331 137.421 782.598 139.592L779.782 163H770.366L778.242 97.88H787.658L784.182 126.788ZM838.712 99.64L835.632 124.852C835.485 126.172 835.294 127.477 835.06 128.768C834.854 130.029 834.62 131.305 834.356 132.596C834.092 133.887 833.798 135.207 833.476 136.556C833.153 137.905 832.816 139.328 832.464 140.824H826.304C826.304 139.328 826.304 137.905 826.304 136.556C826.333 135.207 826.377 133.887 826.436 132.596C826.494 131.305 826.568 130.029 826.656 128.768C826.773 127.477 826.92 126.172 827.096 124.852L830.176 99.64H838.712ZM821.816 157.544C821.816 156.693 821.962 155.901 822.256 155.168C822.578 154.405 823.018 153.745 823.576 153.188C824.133 152.631 824.778 152.191 825.512 151.868C826.245 151.545 827.052 151.384 827.932 151.384C828.782 151.384 829.574 151.545 830.308 151.868C831.07 152.191 831.716 152.631 832.244 153.188C832.801 153.745 833.241 154.405 833.564 155.168C833.886 155.901 834.048 156.693 834.048 157.544C834.048 158.424 833.886 159.231 833.564 159.964C833.241 160.697 832.801 161.343 832.244 161.9C831.716 162.457 831.07 162.883 830.308 163.176C829.574 163.499 828.782 163.66 827.932 163.66C827.052 163.66 826.245 163.499 825.512 163.176C824.778 162.883 824.133 162.457 823.576 161.9C823.018 161.343 822.578 160.697 822.256 159.964C821.962 159.231 821.816 158.424 821.816 157.544Z" fill="black" fill-opacity="0.18"/>
</g>
</g>
<defs>
<filter id="filter0_dd_1_2" x="295.559" y="97.88" width="547.153" height="88.036" filterUnits="userSpaceOnUse" color-interpolation-filters="sRGB">
<feFlood flood-opacity="0" result="BackgroundImageFix"/>
<feColorMatrix in="SourceAlpha" type="matrix" values="0 0 0 0 0 0 0 0 0 0 0 0 0 0 0 0 0 0 127 0" result="hardAlpha"/>
<feOffset dy="4"/>
<feGaussianBlur stdDeviation="2"/>
<feComposite in2="hardAlpha" operator="out"/>
<feColorMatrix type="matrix" values="0 0 0 0 0 0 0 0 0 0 0 0 0 0 0 0 0 0 0.25 0"/>
<feBlend mode="normal" in2="BackgroundImageFix" result="effect1_dropShadow_1_2"/>
<feColorMatrix in="SourceAlpha" type="matrix" values="0 0 0 0 0 0 0 0 0 0 0 0 0 0 0 0 0 0 127 0" result="hardAlpha"/>
<feOffset dy="4"/>
<feGaussianBlur stdDeviation="2"/>
<feComposite in2="hardAlpha" operator="out"/>
<feColorMatrix type="matrix" values="0 0 0 0 0 0 0 0 0 0 0 0 0 0 0 0 0 0 0.25 0"/>
<feBlend mode="normal" in2="effect1_dropShadow_1_2" result="effect2_dropShadow_1_2"/>
<feBlend mode="normal" in="SourceGraphic" in2="effect2_dropShadow_1_2" result="shape"/>
</filter>
<linearGradient id="paint0_linear_1_2" x1="1214" y1="2.99995" x2="-41" y2="423" gradientUnits="userSpaceOnUse">
<stop stop-color="#6A4C91"/>
<stop offset="1" stop-color="#6DA2BF"/>
</linearGradient>
<clipPath id="clip0_1_2">
<rect width="1140" height="342" fill="white"/>
</clipPath>
</defs>
</svg>
